<mxfile host="Electron" modified="2024-03-22T02:57:06.978Z" agent="Mozilla/5.0 (Windows NT 10.0; Win64; x64) AppleWebKit/537.36 (KHTML, like Gecko) draw.io/21.5.0 Chrome/112.0.5615.204 Electron/24.5.1 Safari/537.36" etag="G2mRZylhEv6ihKH2atXP" version="21.5.0" type="device">
  <diagram name="Page-1" id="iQ4jXSE8xveScUPOuwzF">
    <mxGraphModel dx="712" dy="827" grid="1" gridSize="10" guides="1" tooltips="1" connect="1" arrows="1" fold="1" page="1" pageScale="1" pageWidth="850" pageHeight="1100" math="0" shadow="0">
      <root>
        <mxCell id="0" />
        <mxCell id="1" parent="0" />
        <mxCell id="w27JUDBBNmMSCMfGqhh8-1" value="Start" style="ellipse;whiteSpace=wrap;html=1;" vertex="1" parent="1">
          <mxGeometry x="240" y="70" width="120" height="80" as="geometry" />
        </mxCell>
        <mxCell id="w27JUDBBNmMSCMfGqhh8-4" value="Load Data" style="shape=parallelogram;perimeter=parallelogramPerimeter;whiteSpace=wrap;html=1;fixedSize=1;" vertex="1" parent="1">
          <mxGeometry x="240" y="200" width="120" height="60" as="geometry" />
        </mxCell>
        <mxCell id="w27JUDBBNmMSCMfGqhh8-5" value="Normalise Data" style="rounded=0;whiteSpace=wrap;html=1;" vertex="1" parent="1">
          <mxGeometry x="240" y="310" width="120" height="60" as="geometry" />
        </mxCell>
        <mxCell id="w27JUDBBNmMSCMfGqhh8-6" value="Create Dataset" style="rounded=0;whiteSpace=wrap;html=1;" vertex="1" parent="1">
          <mxGeometry x="240" y="420" width="120" height="60" as="geometry" />
        </mxCell>
        <mxCell id="w27JUDBBNmMSCMfGqhh8-7" value="Split Data into Train and Test Sets" style="rounded=0;whiteSpace=wrap;html=1;" vertex="1" parent="1">
          <mxGeometry x="240" y="530" width="120" height="60" as="geometry" />
        </mxCell>
        <mxCell id="w27JUDBBNmMSCMfGqhh8-8" value="Define LSTM Model" style="rounded=0;whiteSpace=wrap;html=1;" vertex="1" parent="1">
          <mxGeometry x="240" y="640" width="120" height="60" as="geometry" />
        </mxCell>
        <mxCell id="w27JUDBBNmMSCMfGqhh8-9" value="Complile Model" style="rounded=0;whiteSpace=wrap;html=1;" vertex="1" parent="1">
          <mxGeometry x="240" y="750" width="120" height="60" as="geometry" />
        </mxCell>
        <mxCell id="w27JUDBBNmMSCMfGqhh8-10" value="Train Model" style="rounded=0;whiteSpace=wrap;html=1;" vertex="1" parent="1">
          <mxGeometry x="240" y="860" width="120" height="60" as="geometry" />
        </mxCell>
        <mxCell id="w27JUDBBNmMSCMfGqhh8-11" value="Make Predictions" style="rounded=0;whiteSpace=wrap;html=1;" vertex="1" parent="1">
          <mxGeometry x="240" y="970" width="120" height="60" as="geometry" />
        </mxCell>
        <mxCell id="w27JUDBBNmMSCMfGqhh8-12" value="Inverse Transform Predictions and Actual Values" style="rounded=0;whiteSpace=wrap;html=1;" vertex="1" parent="1">
          <mxGeometry x="240" y="1080" width="120" height="60" as="geometry" />
        </mxCell>
        <mxCell id="w27JUDBBNmMSCMfGqhh8-13" value="Calculate Root Mean Squared Error (RMSE)" style="rounded=0;whiteSpace=wrap;html=1;" vertex="1" parent="1">
          <mxGeometry x="240" y="1190" width="120" height="60" as="geometry" />
        </mxCell>
        <mxCell id="w27JUDBBNmMSCMfGqhh8-14" value="Print RMSE" style="shape=parallelogram;perimeter=parallelogramPerimeter;whiteSpace=wrap;html=1;fixedSize=1;" vertex="1" parent="1">
          <mxGeometry x="240" y="1300" width="120" height="60" as="geometry" />
        </mxCell>
        <mxCell id="w27JUDBBNmMSCMfGqhh8-15" value="" style="ellipse;whiteSpace=wrap;html=1;" vertex="1" parent="1">
          <mxGeometry x="240" y="1410" width="120" height="80" as="geometry" />
        </mxCell>
      </root>
    </mxGraphModel>
  </diagram>
</mxfile>
